<?xml version="1.0" standalone="no"?>
<!DOCTYPE svg
  PUBLIC "-//W3C//DTD SVG 1.1//EN" "http://www.w3.org/Graphics/SVG/1.1/DTD/svg11.dtd">
<svg t="1675569699430" class="icon" viewBox="0 0 1024 1024" version="1.1"
  xmlns="http://www.w3.org/2000/svg" p-id="8647"
  xmlns:xlink="http://www.w3.org/1999/xlink" width="200" height="200">
  <path
    d="M758.23104 403.3536l-124.86656-73.19552a20.48 20.48 0 0 1 0-35.328l111.06304-65.10592a81.92 81.92 0 0 1 82.82112 0l94.80192 55.5008A81.92 81.92 0 0 1 962.56 355.9424v312.15616a81.92 81.92 0 0 1-40.50944 70.67648l-92.50816 54.19008A20.48 20.48 0 0 1 798.72 775.2704v-301.2608a81.92 81.92 0 0 0-40.48896-70.656z m-194.1504 545.09568a103.17824 103.17824 0 0 1-104.18176 0l-91.70944-53.73952A81.92 81.92 0 0 1 327.68 824.03328V520.97024a81.92 81.92 0 0 1 40.48896-70.67648l112.64-66.02752a81.92 81.92 0 0 1 82.86208 0l112.64 66.02752A81.92 81.92 0 0 1 716.8 520.94976V812.032a81.92 81.92 0 0 1-40.50944 70.69696l-112.18944 65.72032z m-349.16352-143.52384l-112.96768-66.1504A81.92 81.92 0 0 1 61.44 668.0576V355.92192a81.92 81.92 0 0 1 40.50944-70.67648l105.04192-61.52192a81.92 81.92 0 0 1 82.82112 0l121.28256 71.10656a20.48 20.48 0 0 1 0 35.328l-124.84608 73.19552A81.92 81.92 0 0 0 245.76 474.0096v313.26208a20.48 20.48 0 0 1-30.84288 17.65376zM359.58784 134.3488l100.31104-58.7776a103.17824 103.17824 0 0 1 104.20224 0l110.55104 64.77824a20.48 20.48 0 0 1 0 35.328l-111.0016 65.06496a81.92 81.92 0 0 1-82.8416 0l-121.2416-71.0656a20.48 20.48 0 0 1 0-35.328z"
    p-id="8648" fill="#409eff"></path>
</svg>