<?xml version="1.0" standalone="no"?>
<!DOCTYPE svg
  PUBLIC "-//W3C//DTD SVG 1.1//EN" "http://www.w3.org/Graphics/SVG/1.1/DTD/svg11.dtd">
<svg t="1694085836056" class="icon" viewBox="0 0 1024 1024" version="1.1"
  xmlns="http://www.w3.org/2000/svg" p-id="5581"
  xmlns:xlink="http://www.w3.org/1999/xlink" width="200" height="200">
  <path
    d="M896 128H128c-35.2 0-64 28.8-64 64v640c0 35.2 28.8 64 64 64h768c35.2 0 64-28.8 64-64V192c0-35.2-28.8-64-64-64z m32 704c0 19.2-12.8 32-32 32H128c-19.2 0-32-12.8-32-32V320h832v512z m0-544H96v-96c0-19.2 12.8-32 32-32h768c19.2 0 32 12.8 32 32v96z"
    fill="#34495E" p-id="5582"></path>
  <path d="M416 224m-32 0a32 32 0 1 0 64 0 32 32 0 1 0-64 0Z" fill="#00B42A"
    p-id="5583"></path>
  <path d="M288 224m-32 0a32 32 0 1 0 64 0 32 32 0 1 0-64 0Z" fill="#F7BA1E"
    p-id="5584"></path>
  <path d="M160 224m-32 0a32 32 0 1 0 64 0 32 32 0 1 0-64 0Z" fill="#F53F3F"
    p-id="5585"></path>
  <path
    d="M446.784 757.28l99.568-370.832 30.896 8.288-99.568 370.848zM405.04 711.776L269.248 576l135.776-135.76-22.656-22.64L224 576l158.4 158.4zM618.96 711.776l22.672 22.624L800 576l-158.4-158.4-22.64 22.608L754.752 576z"
    fill="#006AFF" p-id="5586"></path>
</svg>